<?xml version="1.0" encoding="UTF-8"?>
<svg id="Capa_2" data-name="Capa 2" xmlns="http://www.w3.org/2000/svg" viewBox="0 0 165.46 138.4">
  <defs>
    <style>
      .cls-1 {
        fill: #fff;
      }
    </style>
  </defs>
  <g id="pba_logo">
    <path class="cls-1" d="m145.27,31.73L165.46,0s-29,2.14-65.82,5.57C62.82,8.99,0,8.13,0,8.13l20.19,34.79s0,4.85-.43,9.28c-.43,4.42-4.42,7.28-4.42,7.28,5.71,3.28,3.28,16.59,2.43,26.51-.66,7.18-4.98,15.06-4.98,15.06l27.74.67c-4.04-11.53-2.44-21.72-2.44-21.72l3.17.84,32.62,57.57,25.52-38.12s4.57.08,17.27-1.28c12.77-2.57,23.89-11.16,26.74-23.72,2.85-12.56-6.16-20.38-6.16-20.38,11.13-8.99,8.03-23.18,8.03-23.18Zm-107.53,17.07c-.05-3.64-.11-16.48,1.93-16.34l13.06-.14s12.7-.21,8.99,21.19c0,0-1.43,13.7-13.13,13.41-11.7-.29-10.8-14.7-10.85-18.12Zm36.1,85.84l-30.25-53.51s18.8,1.93,27.83-9.13c0,0,4.81-5.49,6.71-10.85,0,0,.78-1.14,1.14-1.39,0,0,2.71,2.9,2.57,6.17-.14,3.27-1.23,17.94-1.71,21.26-.86,5.85-4.14,14.13-4.14,14.13,0,0,10.99-.14,20.83-1l-22.98,34.32Zm48.38-55.6c-1.78,2.06-4.68,3.88-9.41,4.46-12.77,1.57-12.41.78-12.41.78,0,0-1.14-.07-1-2.93.14-2.85.78-16.77.78-16.77,0,0-.07-1.57,1.5-1.78l12.34-.86s11.27-1.86,10.99,9.42c0,0,.23,4.18-2.79,7.67Zm-7.93-28.67c-12.77,1.57-12.41.78-12.41.78,0,0-1.14-.07-1-2.93.14-2.85.78-16.77.78-16.77,0,0-.07-1.57,1.5-1.78l12.34-.86s11.27-1.86,10.99,9.42c0,0,.57,10.56-12.2,12.13Zm-1.14-36.32s-27.11,2.5-29.9,2.35c-2.82-.14-2.43,1.64-2.43,1.64,3.14,6.14,2.43,13.06,2.43,13.06,0,0-.69,17.3-1,20.69-.31,2.57-2.5,5.14-2.5,5.14,1.57-11.89,1.14-24.33-5.92-30.54-8.99-8.7-19.55-8.38-19.55-8.38,0,0-31.04.39-33.46.25-3.78-.21-1,4.35-1,4.35,1.93,5.57,1.38,17.71,1.38,17.71L3.78,10.16c50.37.97,95.55-2.49,124.44-5.02,21.45-1.88,33.68-2.93,33.68-2.93l-17.48,26.76c-6.76-17.84-31.25-14.91-31.25-14.91Z"/>
  </g>
</svg>